<?xml version="1.0" standalone="no"?><!DOCTYPE svg PUBLIC "-//W3C//DTD SVG 1.1//EN" "http://www.w3.org/Graphics/SVG/1.1/DTD/svg11.dtd"><svg t="1539267937676" class="icon" style="" viewBox="0 0 1024 1024" version="1.1" xmlns="http://www.w3.org/2000/svg" p-id="2381" xmlns:xlink="http://www.w3.org/1999/xlink" width="32" height="32"><defs><style type="text/css"></style></defs><path d="M388.692 253.998h239.372V195.36H388.692v58.638z m359.065 0h60.013c16.266 0 29.751 13.629 29.751 31.025v508.754c0 17.314-13.629 31.018-30.064 31.018h-598.15c-16.476 0-30.072-13.663-30.072-31.018V285.02c0-17.393 13.548-31.025 30.16-31.025h60.974V195.36h-60.974c-50.035 0-90.003 40.234-90.003 89.652v508.75c0 49.422 40.05 89.663 89.915 89.663h598.15c49.845 0 89.922-40.303 89.922-89.663V285.02c0-49.388-39.88-89.656-89.608-89.656h-60.007v58.634h-0.007zM298.92 163.201c0-16.091 13.282-29.142 29.928-29.142 16.524 0 29.921 13.041 29.921 29.142v123.102c0 16.091-13.289 29.145-29.921 29.145-16.524 0-29.928-13.044-29.928-29.145V163.201z m359.072-0.02c0-16.084 13.282-29.121 29.921-29.121 16.518 0 29.922 13.033 29.922 29.121v123c0 16.082-13.281 29.122-29.922 29.122-16.53 0-29.921-13.04-29.921-29.122v-123zM298.92 490.74c0-16.19 13.466-29.322 30.133-29.322h358.649c16.646 0 30.133 13.017 30.133 29.322 0 16.187-13.473 29.322-30.133 29.322H329.053c-16.647 0.001-30.133-13.015-30.133-29.322z m0 151.038c0-16.197 13.466-29.315 30.133-29.315h358.649c16.646 0 30.133 13.009 30.133 29.315 0 16.184-13.473 29.315-30.133 29.315H329.053c-16.647 0.001-30.133-13.016-30.133-29.315z" p-id="2382"></path></svg>