<?xml version="1.0" standalone="no"?><!DOCTYPE svg PUBLIC "-//W3C//DTD SVG 1.1//EN" "http://www.w3.org/Graphics/SVG/1.1/DTD/svg11.dtd"><svg t="1536680440506" class="icon" style="" viewBox="0 0 1024 1024" version="1.1" xmlns="http://www.w3.org/2000/svg" p-id="5844" xmlns:xlink="http://www.w3.org/1999/xlink" width="25" height="25"><defs><style type="text/css"></style></defs><path d="M512 1.597504c-282.75819 0-511.201248 228.443058-511.201248 511.201248 0 282.75819 228.443058 511.201248 511.201248 511.201248s511.201248-228.443058 511.201248-511.201248C1023.201248 230.040562 794.75819 1.597504 512 1.597504zM786.770671 677.341654c0 12.780031-4.792512 25.560062-14.377535 35.145086-9.585023 9.585023-20.767551 14.377535-35.145086 14.377535l-452.093604 0c-12.780031 0-25.560062-4.792512-35.145086-14.377535-9.585023-9.585023-14.377535-20.767551-14.377535-35.145086l0-242.820593c9.585023 9.585023 19.170047 19.170047 30.352574 27.157566 73.485179 49.522621 124.605304 86.265211 151.762871 105.435257 11.182527 7.98752 20.767551 15.975039 28.75507 20.767551 7.98752 4.792512 17.572543 9.585023 28.75507 14.377535 12.780031 4.792512 23.962559 7.98752 33.547582 7.98752l0 0 0 0c11.182527 0 22.365055-3.195008 33.547582-7.98752 12.780031-4.792512 22.365055-9.585023 28.75507-14.377535 7.98752-4.792512 15.975039-11.182527 28.75507-20.767551 35.145086-25.560062 86.265211-60.705148 153.360374-105.435257 11.182527-7.98752 22.365055-17.572543 30.352574-27.157566L783.575663 677.341654zM772.393136 391.388456c-9.585023 14.377535-22.365055 27.157566-36.74259 38.340094-76.680187 52.717629-124.605304 86.265211-143.775351 99.045242-1.597504 1.597504-6.390016 4.792512-12.780031 9.585023-6.390016 4.792512-12.780031 7.98752-15.975039 11.182527-4.792512 3.195008-9.585023 6.390016-15.975039 9.585023-6.390016 3.195008-12.780031 6.390016-17.572543 7.98752-4.792512 1.597504-11.182527 3.195008-15.975039 3.195008l0 0 0 0c-4.792512 0-9.585023-1.597504-15.975039-3.195008-4.792512-1.597504-11.182527-4.792512-17.572543-7.98752-6.390016-3.195008-11.182527-6.390016-15.975039-9.585023-4.792512-3.195008-9.585023-6.390016-15.975039-11.182527-6.390016-4.792512-11.182527-7.98752-12.780031-9.585023-19.170047-12.780031-44.730109-31.950078-79.875195-55.912637-35.145086-23.962559-55.912637-38.340094-62.302652-43.132605-12.780031-7.98752-23.962559-20.767551-35.145086-35.145086-11.182527-14.377535-17.572543-28.75507-17.572543-41.535101 0-15.975039 4.792512-28.75507 12.780031-39.937598s20.767551-15.975039 36.74259-15.975039l452.093604 0c12.780031 0 25.560062 4.792512 35.145086 14.377535 9.585023 9.585023 14.377535 20.767551 14.377535 35.145086C786.770671 361.035881 781.978159 375.413417 772.393136 391.388456z" p-id="5845" fill="#ccc8bd"></path></svg>
