<?xml version="1.0" standalone="no"?><!DOCTYPE svg PUBLIC "-//W3C//DTD SVG 1.1//EN" "http://www.w3.org/Graphics/SVG/1.1/DTD/svg11.dtd"><svg t="1540797311854" class="icon" style="" viewBox="0 0 1024 1024" version="1.1" xmlns="http://www.w3.org/2000/svg" p-id="1968" xmlns:xlink="http://www.w3.org/1999/xlink" width="32" height="32"><defs><style type="text/css"></style></defs><path d="M919.3 244.1H104.7c-22 0-40-18-40-40s18-40 40-40h814.5c22 0 40 18 40 40s-17.9 40-39.9 40z m0 615.8H104.7c-22 0-40-18-40-40s18-40 40-40h814.5c22 0 40 18 40 40s-17.9 40-39.9 40z m0-297H104.7c-22 0-40-18-40-40s18-40 40-40h814.5c22 0 40 18 40 40s-17.9 40-39.9 40z" fill="#2c2c2c" p-id="1969"></path></svg>