<?xml version="1.0" standalone="no"?><!DOCTYPE svg PUBLIC "-//W3C//DTD SVG 1.1//EN" "http://www.w3.org/Graphics/SVG/1.1/DTD/svg11.dtd"><svg t="1536916157658" class="icon" style="" viewBox="0 0 1024 1024" version="1.1" xmlns="http://www.w3.org/2000/svg" p-id="2918" xmlns:xlink="http://www.w3.org/1999/xlink" width="32" height="32"><defs><style type="text/css"></style></defs><path d="M31.055691 31.028665 31.055691 31.028665 31.055691 31.028665Z" p-id="2919" fill="#515151"></path><path d="M993.192538 876.001273l-235.197281-200.010775c-24.326473-21.84418-50.328495-31.897468-71.303872-30.966608 55.541311-65.036082 89.052269-149.434051 89.052269-241.589186 0-205.595935-166.748046-372.343981-372.343981-372.343981s-372.343981 166.748046-372.343981 372.343981c0 205.595935 166.748046 372.343981 372.343981 372.343981 92.217193 0 176.553104-33.510958 241.589186-89.052269-0.93086 20.975378 9.06037 47.039456 30.966608 71.303872l200.010775 235.197281c34.255646 38.041143 90.231358 41.268125 124.36289 7.136593s30.90455-90.045186-7.136593-124.36289zM403.399672 651.601967c-137.084642 0-248.229321-111.144678-248.229321-248.229321s111.144678-248.229321 248.229321-248.229321 248.229321 111.144678 248.229321 248.229321-111.144678 248.229321-248.229321 248.229321z" p-id="2920" fill="#515151"></path></svg>